  0
SECTION
  2
HEADER
  9
$ACADVER
  1
AC1015
  9
$INSUNITS
 70
0
  9
$EXTMIN
 10
0
 20
-1.9454818009701995
 30
0
  9
$EXTMAX
 10
370.4279118154925
 20
200
 30
0
  0
ENDSEC
  0
SECTION
  2
TABLES
  0
TABLE
  2
LTYPE
 70
2
  0
LTYPE
  2
CONTINUOUS
 70
0
  3
Solid line
 72
65
 73
0
 40
0
  0
LTYPE
  2
DASHED
 70
0
  3
Dashed line
 72
65
 73
2
 40
0.75
 49
0.5
 49
-0.25
  0
ENDTAB
  0
TABLE
  2
LAYER
 70
2
  0
LAYER
  2
0
 70
0
 62
7
  6
CONTINUOUS
  0
LAYER
  2
ELETRICA
 70
0
 62
7
  6
CONTINUOUS
  0
ENDTAB
  0
ENDSEC
  0
SECTION
  2
BLOCKS
  0
ENDSEC
  0
SECTION
  2
ENTITIES
  0
LINE
  8
0
 10
0
 20
0
 30
0
 11
0
 21
200
 31
0
  0
LINE
  8
0
 10
0
 20
200
 30
0
 11
100
 21
200
 31
0
  0
LINE
  8
0
 10
100
 20
200
 30
0
 11
100
 21
100
 31
0
  0
LINE
  8
0
 10
100
 20
100
 30
0
 11
200
 21
100
 31
0
  0
LINE
  8
0
 10
200
 20
100
 30
0
 11
200
 21
50
 31
0
  0
LINE
  8
0
 10
200
 20
50
 30
0
 11
100
 21
50
 31
0
  0
LINE
  8
0
 10
100
 20
50
 30
0
 11
80
 21
50
 31
0
  0
LINE
  8
0
 10
80
 20
50
 30
0
 11
80
 21
180
 31
0
  0
LINE
  8
0
 10
80
 20
180
 30
0
 11
20
 21
180
 31
0
  0
LINE
  8
0
 10
20
 20
180
 30
0
 11
20
 21
20
 31
0
  0
LINE
  8
0
 10
20
 20
20
 30
0
 11
300
 21
20
 31
0
  0
LINE
  8
0
 10
300
 20
20
 30
0
 11
300
 21
40
 31
0
  0
LINE
  8
0
 10
300
 20
40
 30
0
 11
280
 21
80
 31
0
  0
LINE
  8
0
 10
280
 20
80
 30
0
 11
320
 21
80
 31
0
  0
LINE
  8
0
 10
320
 20
80
 30
0
 11
320
 21
0
 31
0
  0
LINE
  8
0
 10
320
 20
0
 30
0
 11
0
 21
0
 31
0
  0
LINE
  8
0
 10
0
 20
0
 30
0
 11
0
 21
0
 31
0
  0
CIRCLE
  8
ELETRICA
 10
161.44618685369034
 20
161.64922621981827
 30
0
 40
36.875506799783246
  0
ARC
  8
ELETRICA
 10
284.46458006460415
 20
84.01784994991814
 30
0
 40
85.96333175088834
 50
74.62276937007266
 51
169.28532838650634
  0
ENDSEC
  0
EOF