  0
SECTION
  2
HEADER
  9
$ACADVER
  1
AC1032
  9
$INSUNITS
 70
0
  9
$EXTMIN
 10
-0.1
 20
0
 30
0
  9
$EXTMAX
 10
12
 20
9.1
 30
0
  0
ENDSEC
  0
SECTION
  2
TABLES
  0
TABLE
  2
LTYPE
 70
7
  0
LTYPE
  2
CONTINUOUS
 70
0
  3
Solid line
 72
65
 73
0
 40
0
  0
LTYPE
  2
DASHED
 70
0
  3
Dashed line
 72
65
 73
2
 40
0.75
 49
0.5
 49
-0.25
  0
LTYPE
  2
HIDDEN
 70
0
  3
Hidden line
 72
65
 73
2
 40
9.525
 49
6.35
 49
-3.175
  0
LTYPE
  2
CENTER
 70
0
  3
Center line
 72
65
 73
4
 40
50.8
 49
31.75
 49
-6.35
 49
6.35
 49
-6.35
  0
LTYPE
  2
DASHDOT
 70
0
  3
Dash dot line
 72
65
 73
4
 40
25.4
 49
12.7
 49
-6.35
 49
0
 49
-6.35
  0
LTYPE
  2
PHANTOM
 70
0
  3
Phantom line
 72
65
 73
6
 40
63.5
 49
31.75
 49
-6.35
 49
6.35
 49
-6.35
 49
6.35
 49
-6.35
  0
LTYPE
  2
DOT
 70
0
  3
Dotted line
 72
65
 73
2
 40
6.35
 49
0
 49
-6.35
  0
ENDTAB
  0
TABLE
  2
LAYER
 70
4
  0
LAYER
  2
0
 70
0
 62
7
  6
CONTINUOUS
  0
LAYER
  2
PAREDE_EXTERNA_15
 70
0
 62
7
  6
CONTINUOUS
  0
LAYER
  2
ELE_FIA_BIT-2-5
 70
0
 62
7
  6
CONTINUOUS
  0
LAYER
  2
LAJE_MACICA_10
 70
0
 62
7
  6
CONTINUOUS
  0
ENDTAB
  0
ENDSEC
  0
SECTION
  2
BLOCKS
  0
BLOCK
  8
0
  2
P90
 70
0
 10
0
 20
0
 30
0
  0
LINE
  8
ELE_FIA_BIT-2-5
 10
1
 20
0
 30
0
 11
0
 21
0
 31
0
  0
LINE
  8
ELE_FIA_BIT-2-5
 10
0
 20
0
 30
0
 11
0
 21
0.2
 31
0
  0
LINE
  8
ELE_FIA_BIT-2-5
 10
0
 20
0.2
 30
0
 11
1
 21
0.2
 31
0
  0
LINE
  8
ELE_FIA_BIT-2-5
 10
1
 20
0.2
 30
0
 11
1
 21
0
 31
0
  0
ENDBLK
  8
0
  0
BLOCK
  8
0
  2
J100
 70
0
 10
0
 20
0
 30
0
  0
LINE
  8
ELE_FIA_BIT-2-5
 10
1
 20
0
 30
0
 11
0
 21
0
 31
0
  0
LINE
  8
ELE_FIA_BIT-2-5
 10
0
 20
0
 30
0
 11
0
 21
0.2
 31
0
  0
LINE
  8
ELE_FIA_BIT-2-5
 10
0
 20
0.2
 30
0
 11
1
 21
0.2
 31
0
  0
LINE
  8
ELE_FIA_BIT-2-5
 10
1
 20
0.2
 30
0
 11
1
 21
0
 31
0
  0
ENDBLK
  8
0
  0
BLOCK
  8
0
  2
VIGA_15X30
 70
0
 10
0
 20
0
 30
0
  0
LINE
  8
0
 10
0.1999999999999993
 20
0
 30
0
 11
0
 21
0
 31
0
  0
LINE
  8
0
 10
0
 20
0
 30
0
 11
0
 21
0.2
 31
0
  0
LINE
  8
0
 10
0
 20
0.2
 30
0
 11
0.1999999999999993
 21
0.2
 31
0
  0
LINE
  8
0
 10
0.1999999999999993
 20
0.2
 30
0
 11
0.1999999999999993
 21
0
 31
0
  0
ENDBLK
  8
0
  0
BLOCK
  8
0
  2
COL_20X20
 70
0
 10
0
 20
0
 30
0
  0
LINE
  8
0
 10
0.048334642590941
 20
0
 30
0
 11
-0.34092656230840657
 21
0
 31
0
  0
LINE
  8
0
 10
-0.34092656230840657
 20
0
 30
0
 11
-0.34092656230840657
 21
0.2703202811801013
 31
0
  0
LINE
  8
0
 10
-0.34092656230840657
 20
0.2703202811801013
 30
0
 11
0.048334642590941
 21
0.2703202811801013
 31
0
  0
LINE
  8
0
 10
0.048334642590941
 20
0.2703202811801013
 30
0
 11
0.048334642590941
 21
0
 31
0
  0
ENDBLK
  8
0
  0
BLOCK
  8
0
  2
VIGA_20X40
 70
0
 10
0
 20
0
 30
0
  0
LINE
  8
0
 10
0.42909125219722277
 20
-0.2628396182611823
 30
0
 11
-0.1443770058271765
 21
-0.2628396182611823
 31
0
  0
LINE
  8
0
 10
-0.1443770058271765
 20
-0.2628396182611823
 30
0
 11
-0.1443770058271765
 21
0
 31
0
  0
LINE
  8
0
 10
-0.1443770058271765
 20
0
 30
0
 11
0.42909125219722277
 21
0
 31
0
  0
LINE
  8
0
 10
0.42909125219722277
 20
0
 30
0
 11
0.42909125219722277
 21
-0.2628396182611823
 31
0
  0
ENDBLK
  8
0
  0
ENDSEC
  0
SECTION
  2
ENTITIES
  0
LINE
  8
PAREDE_EXTERNA_15
 10
0
 20
0
 30
0
 11
0
 21
9
 31
0
  0
LINE
  8
PAREDE_EXTERNA_15
 10
0
 20
9
 30
0
 11
8
 21
9
 31
0
  0
LINE
  8
PAREDE_EXTERNA_15
 10
8
 20
9
 30
0
 11
8
 21
0
 31
0
  0
LINE
  8
PAREDE_EXTERNA_15
 10
8
 20
0
 30
0
 11
0
 21
0
 31
0
  0
LINE
  8
ELE_FIA_BIT-2-5
 10
-0.1
 20
0
 30
0
 11
-0.1
 21
6.5
 31
0
  0
LINE
  8
ELE_FIA_BIT-2-5
 10
-0.1
 20
6.5
 30
0
 11
0
 21
6.5
 31
0
  0
LINE
  8
ELE_FIA_BIT-2-5
 10
-0.1
 20
6.5
 30
0
 11
-0.1
 21
9.1
 31
0
  0
LINE
  8
ELE_FIA_BIT-2-5
 10
-0.1
 20
9.1
 30
0
 11
2.5
 21
9.1
 31
0
  0
LINE
  8
ELE_FIA_BIT-2-5
 10
2.5
 20
9.1
 30
0
 11
2.5
 21
9
 31
0
  0
INSERT
  8
ELE_FIA_BIT-2-5
  2
P90
 10
0.9955997732067354
 20
0
 30
0
  0
INSERT
  8
ELE_FIA_BIT-2-5
  2
J100
 10
8
 20
1.4932967925429477
 30
0
 50
90
  0
INSERT
  8
0
  2
VIGA_15X30
 10
12
 20
0
 30
0
  0
INSERT
  8
0
  2
VIGA_15X30
 10
0
 20
9
 30
0
 50
-90
  0
INSERT
  8
0
  2
COL_20X20
 10
7.678493950551113
 20
8.459366855642283
 30
0
  0
INSERT
  8
0
  2
VIGA_20X40
 10
1.583640831842322
 20
8.15492782046643
 30
0
  0
LINE
  8
LAJE_MACICA_10
 10
0
 20
0
 30
0
 11
0
 21
9
 31
0
  0
LINE
  8
LAJE_MACICA_10
 10
0
 20
9
 30
0
 11
8
 21
9
 31
0
  0
LINE
  8
LAJE_MACICA_10
 10
8
 20
9
 30
0
 11
8
 21
0
 31
0
  0
LINE
  8
LAJE_MACICA_10
 10
8
 20
0
 30
0
 11
0
 21
0
 31
0
  0
ENDSEC
  0
EOF