  0
SECTION
  2
HEADER
  9
$ACADVER
  1
AC1015
  9
$INSUNITS
 70
0
  9
$EXTMIN
 10
0
 20
0
 30
0
  9
$EXTMAX
 10
15.5
 20
8
 30
0
  0
ENDSEC
  0
SECTION
  2
TABLES
  0
TABLE
  2
LTYPE
 70
7
  0
LTYPE
  2
CONTINUOUS
 70
0
  3
Solid line
 72
65
 73
0
 40
0
  0
LTYPE
  2
DASHED
 70
0
  3
Dashed line
 72
65
 73
2
 40
19.05
 49
12.7
 49
-6.35
  0
LTYPE
  2
HIDDEN
 70
0
  3
Hidden line
 72
65
 73
2
 40
9.525
 49
6.35
 49
-3.175
  0
LTYPE
  2
CENTER
 70
0
  3
Center line
 72
65
 73
4
 40
50.8
 49
31.75
 49
-6.35
 49
6.35
 49
-6.35
  0
LTYPE
  2
DASHDOT
 70
0
  3
Dash dot line
 72
65
 73
4
 40
25.4
 49
12.7
 49
-6.35
 49
0
 49
-6.35
  0
LTYPE
  2
PHANTOM
 70
0
  3
Phantom line
 72
65
 73
6
 40
63.5
 49
31.75
 49
-6.35
 49
6.35
 49
-6.35
 49
6.35
 49
-6.35
  0
LTYPE
  2
DOT
 70
0
  3
Dotted line
 72
65
 73
2
 40
6.35
 49
0
 49
-6.35
  0
ENDTAB
  0
TABLE
  2
LAYER
 70
0
  0
ENDTAB
  0
ENDSEC
  0
SECTION
  2
BLOCKS
  0
ENDSEC
  0
SECTION
  2
ENTITIES
  0
LINE
  8
arq - alvenaria alta
 10
0
 20
0
 30
0
 11
5
 21
0
 31
0
  0
LINE
  8
arq - alvenaria alta
 10
5
 20
0
 30
0
 11
5
 21
4
 31
0
  0
LINE
  8
arq - alvenaria alta
 10
5
 20
4
 30
0
 11
0
 21
4
 31
0
  0
LINE
  8
arq - alvenaria alta
 10
0
 20
4
 30
0
 11
0
 21
0
 31
0
  0
LINE
  8
arq - esquadrias
 10
2
 20
0
 30
0
 11
3
 21
0
 31
0
  0
LINE
  8
arq - esquadrias
 10
5
 20
1.4
 30
0
 11
5
 21
2.8
 31
0
  0
LINE
  8
arq - alvenaria alta
 10
6
 20
0
 30
0
 11
12
 21
0
 31
0
  0
LINE
  8
arq - alvenaria alta
 10
12
 20
0
 30
0
 11
12
 21
4
 31
0
  0
LINE
  8
arq - alvenaria alta
 10
12
 20
4
 30
0
 11
6
 21
4
 31
0
  0
LINE
  8
arq - alvenaria alta
 10
6
 20
4
 30
0
 11
6
 21
0
 31
0
  0
LINE
  8
arq - esquadrias
 10
8.2
 20
0
 30
0
 11
9.2
 21
0
 31
0
  0
LINE
  8
arq - esquadrias
 10
12
 20
1.2
 30
0
 11
12
 21
2.4
 31
0
  0
MTEXT
  8
arq - textos
 10
13.35
 20
1.6500000000000001
 30
0
 40
0.25
 71
1
  1
BANHEIRO
  0
LINE
  8
arq - alvenaria alta
 10
13
 20
0
 30
0
 11
15.4
 21
0
 31
0
  0
LINE
  8
arq - alvenaria alta
 10
15.4
 20
0
 30
0
 11
15.4
 21
2.2
 31
0
  0
LINE
  8
arq - alvenaria alta
 10
15.4
 20
2.2
 30
0
 11
13
 21
2.2
 31
0
  0
LINE
  8
arq - alvenaria alta
 10
13
 20
2.2
 30
0
 11
13
 21
0
 31
0
  0
LINE
  8
arq - esquadrias
 10
13.7
 20
0
 30
0
 11
14.5
 21
0
 31
0
  0
MTEXT
  8
arq - textos
 10
0.35
 20
7.45
 30
0
 40
0.25
 71
1
  1
COPA
  0
LINE
  8
arq - alvenaria alta
 10
0
 20
5
 30
0
 11
3.5
 21
5
 31
0
  0
LINE
  8
arq - alvenaria alta
 10
3.5
 20
5
 30
0
 11
3.5
 21
8
 31
0
  0
LINE
  8
arq - alvenaria alta
 10
3.5
 20
8
 30
0
 11
0
 21
8
 31
0
  0
LINE
  8
arq - alvenaria alta
 10
0
 20
8
 30
0
 11
0
 21
5
 31
0
  0
LINE
  8
arq - esquadrias
 10
1.1
 20
5
 30
0
 11
2
 21
5
 31
0
  0
LINE
  8
arq - alvenaria alta
 10
4.5
 20
6.8
 30
0
 11
4.5
 21
5
 31
0
  0
LINE
  8
arq - alvenaria alta
 10
12.5
 20
4
 30
0
 11
15.5
 21
4
 31
0
  0
LINE
  8
arq - alvenaria alta
 10
15.5
 20
4
 30
0
 11
15.5
 21
6.5
 31
0
  0
LINE
  8
arq - alvenaria alta
 10
15.5
 20
6.5
 30
0
 11
12.5
 21
6.5
 31
0
  0
LINE
  8
arq - alvenaria alta
 10
12.5
 20
6.5
 30
0
 11
12.5
 21
4
 31
0
  0
LINE
  8
arq - esquadrias
 10
13.5
 20
4
 30
0
 11
14.3
 21
4
 31
0
  0
ENDSEC
  0
EOF